<?xml version="1.0" standalone="no"?>
<!DOCTYPE svg PUBLIC "-//W3C//DTD SVG 20010904//EN"
 "http://www.w3.org/TR/2001/REC-SVG-20010904/DTD/svg10.dtd">
<svg version="1.0" xmlns="http://www.w3.org/2000/svg"
 width="342.000000pt" height="470.000000pt" viewBox="0 0 342.000000 470.000000"
 preserveAspectRatio="xMidYMid meet">

<g transform="translate(0.000000,470.000000) scale(0.100000,-0.100000)"
fill="#000000" stroke="none">
<path d="M1656 4565 c-15 -47 -31 -85 -35 -85 -5 0 -38 37 -75 81 -43 53 -66
75 -66 63 0 -10 7 -65 17 -122 l16 -102 171 2 171 3 17 90 c10 50 17 102 15
117 -2 26 -7 22 -66 -52 -35 -44 -68 -80 -72 -80 -5 0 -20 38 -35 85 -14 47
-27 85 -29 85 -1 0 -14 -38 -29 -85z"/>
<path d="M1330 4475 c0 -19 33 -95 41 -95 5 0 1 19 -8 43 -16 43 -33 69 -33
52z"/>
<path d="M2016 4435 c-10 -25 -16 -51 -13 -58 2 -6 12 12 21 41 22 66 15 79
-8 17z"/>
<path d="M1170 4402 c0 -17 51 -105 57 -98 4 4 -25 64 -46 96 -8 11 -11 12
-11 2z"/>
<path d="M2168 4360 c-30 -54 -34 -65 -18 -55 14 9 62 105 53 105 -5 0 -20
-23 -35 -50z"/>
<path d="M1520 4365 c0 -13 25 -15 165 -15 140 0 165 2 165 15 0 13 -25 15
-165 15 -140 0 -165 -2 -165 -15z"/>
<path d="M1021 4305 c-1 -14 66 -91 73 -85 3 3 -12 26 -34 50 -22 25 -39 41
-39 35z"/>
<path d="M2303 4260 c-18 -21 -33 -42 -33 -46 0 -11 59 47 71 69 17 30 -5 18
-38 -23z"/>
<path d="M930 4141 c25 -22 47 -37 50 -34 6 6 -71 73 -85 73 -5 -1 10 -18 35
-39z"/>
<path d="M2426 4145 c-22 -19 -37 -37 -34 -40 3 -3 25 13 49 34 24 22 40 40
34 40 -5 0 -28 -15 -49 -34z"/>
<path d="M790 4033 c1 -11 91 -65 98 -58 7 6 8 5 -50 39 -27 15 -48 23 -48 19z"/>
<path d="M2527 4008 c-26 -17 -46 -32 -43 -35 6 -7 96 47 96 58 0 11 3 13 -53
-23z"/>
<path d="M1330 3914 c-14 -2 -49 -9 -77 -15 l-53 -10 0 -291 c0 -255 2 -289
15 -284 8 3 45 11 81 17 138 24 245 -11 333 -107 l51 -55 0 280 0 280 -40 50
c-45 56 -91 94 -141 115 -37 15 -129 26 -169 20z m208 -362 c-25 -45 -19 -88
15 -102 l22 -9 -22 0 c-29 -1 -57 41 -49 72 5 21 42 77 51 77 2 0 -6 -17 -17
-38z m66 8 c-6 -6 -10 -3 -10 10 0 13 4 16 10 10 7 -7 7 -13 0 -20z m52 -98
c-11 -10 -15 4 -8 28 l7 25 3 -23 c2 -13 1 -26 -2 -30z m-40 1 c-11 -11 -17 4
-9 23 7 18 8 18 11 1 2 -10 1 -21 -2 -24z"/>
<path d="M1923 3910 c-65 -14 -142 -69 -196 -141 l-26 -35 -1 -279 0 -278 58
55 c32 31 78 66 102 78 58 29 154 36 243 17 37 -7 70 -11 72 -7 2 4 3 132 2
286 l-2 279 -35 11 c-50 17 -168 24 -217 14z m-92 -410 c5 0 9 -9 9 -20 0 -20
0 -20 -21 1 -13 13 -18 26 -13 37 7 16 7 16 11 0 3 -10 9 -18 14 -18z m-94
-10 c-3 -39 -17 -39 -17 0 0 17 4 30 10 30 5 0 8 -13 7 -30z m39 -5 c1 -14 -2
-22 -7 -19 -11 6 -12 44 -1 44 4 0 8 -11 8 -25z m104 -17 c0 -16 -3 -19 -11
-11 -6 6 -8 16 -5 22 11 17 16 13 16 -11z"/>
<path d="M715 3870 c-2 -4 20 -16 50 -28 30 -11 55 -17 55 -13 0 11 -99 50
-105 41z"/>
<path d="M2593 3852 c-24 -9 -43 -20 -43 -23 0 -8 96 23 107 34 10 11 -19 6
-64 -11z"/>
<path d="M1156 3814 c-4 -9 -6 -140 -6 -291 1 -208 4 -274 13 -270 68 26 199
49 263 45 46 -2 67 0 57 6 -31 17 -137 18 -213 2 -41 -9 -78 -16 -82 -16 -5 0
-8 122 -8 270 0 246 -5 302 -24 254z"/>
<path d="M2200 3566 c0 -168 -4 -267 -10 -271 -6 -4 -45 1 -87 11 -86 19 -184
15 -233 -11 -43 -22 -37 -27 11 -10 73 26 225 12 332 -30 16 -7 17 11 17 284
0 252 -2 291 -15 291 -13 0 -15 -36 -15 -264z"/>
<path d="M685 3692 c28 -12 104 -23 85 -13 -8 5 -35 12 -60 15 -29 4 -38 3
-25 -2z"/>
<path d="M2641 3689 c-24 -5 -47 -11 -50 -15 -10 -11 92 5 103 16 11 11 9 11
-53 -1z"/>
<path d="M678 3513 c17 -2 47 -2 65 0 17 2 3 4 -33 4 -36 0 -50 -2 -32 -4z"/>
<path d="M2628 3513 c17 -2 47 -2 65 0 17 2 3 4 -33 4 -36 0 -50 -2 -32 -4z"/>
<path d="M703 3353 c-18 -2 -33 -9 -33 -14 0 -10 58 -3 95 12 18 7 17 8 -5 7
-14 -1 -40 -3 -57 -5z"/>
<path d="M2594 3351 c7 -11 76 -20 76 -10 0 3 -14 9 -31 13 -42 8 -51 8 -45
-3z"/>
<path d="M2844 3253 c-3 -15 -10 -43 -16 -61 -5 -18 -8 -35 -6 -36 1 -1 46 -8
98 -15 52 -6 96 -14 99 -17 4 -4 -22 -202 -45 -345 l-6 -36 138 -22 c76 -13
144 -26 151 -28 25 -10 12 17 -49 98 -107 140 -140 190 -135 203 3 7 71 55
152 106 80 51 145 94 143 95 -5 5 -220 42 -343 60 -60 8 -124 18 -142 21 -29
4 -33 2 -39 -23z"/>
<path d="M258 3239 c-277 -44 -267 -29 -93 -139 82 -52 153 -98 159 -102 9 -6
-14 -40 -144 -213 -33 -43 -60 -83 -60 -87 0 -5 10 -6 23 -3 30 7 257 45 269
45 12 0 7 53 -23 235 -10 66 -19 127 -19 136 0 13 19 19 90 29 100 14 96 8 68
98 -9 30 -13 32 -51 31 -23 0 -122 -14 -219 -30z"/>
<path d="M1311 3239 c-25 -5 -81 -21 -125 -36 -45 -15 -84 -26 -88 -25 -5 1
-8 -10 -8 -24 0 -17 4 -24 13 -21 6 3 48 21 91 41 44 19 110 40 148 47 67 12
111 7 248 -26 23 -6 22 -4 -5 11 -66 38 -179 52 -274 33z"/>
<path d="M1870 3236 c-25 -7 -58 -20 -75 -30 -16 -9 -22 -15 -13 -12 166 50
270 41 429 -37 l89 -44 0 31 c0 23 -5 32 -17 33 -10 1 -45 11 -78 23 -135 48
-249 60 -335 36z"/>
<path d="M785 3199 c-11 -5 -33 -13 -49 -19 -16 -6 -26 -13 -23 -16 7 -7 107
29 107 38 0 10 -9 9 -35 -3z"/>
<path d="M2550 3201 c0 -9 77 -41 100 -41 20 0 10 6 -47 29 -29 11 -53 17 -53
12z"/>
<path d="M2765 3024 c-57 -123 -118 -214 -207 -309 -39 -41 -69 -77 -67 -79 2
-2 76 -11 164 -21 88 -9 181 -19 206 -22 l46 -5 17 118 c10 66 24 160 31 209
8 50 16 110 17 135 l3 44 -40 7 c-22 3 -59 9 -83 12 l-43 5 -44 -94z"/>
<path d="M460 3103 c-19 -3 -38 -8 -42 -11 -4 -4 3 -77 16 -162 13 -85 30
-195 36 -243 7 -53 17 -90 25 -93 7 -3 75 2 152 10 76 9 162 19 192 22 l53 6
-61 61 c-88 90 -156 187 -215 309 -57 119 -47 113 -156 101z"/>
<path d="M832 3034 c-24 -14 -41 -28 -38 -31 5 -6 96 44 96 52 0 10 -16 4 -58
-21z"/>
<path d="M2480 3053 c0 -12 100 -65 100 -53 0 5 -22 21 -50 35 -27 14 -50 22
-50 18z"/>
<path d="M929 2890 c-24 -23 -35 -36 -24 -31 32 17 80 60 74 66 -3 3 -26 -13
-50 -35z"/>
<path d="M2420 2890 c25 -22 50 -40 55 -40 6 0 -10 18 -35 40 -25 22 -49 39
-55 39 -5 0 10 -18 35 -39z"/>
<path d="M1056 2779 c-31 -37 -44 -59 -33 -59 7 0 78 92 74 96 -2 3 -21 -14
-41 -37z"/>
<path d="M2300 2770 c32 -40 50 -56 50 -45 0 11 -63 85 -73 85 -5 0 6 -18 23
-40z"/>
<path d="M1208 2708 c-27 -42 -49 -88 -41 -88 10 0 67 100 60 106 -2 3 -11 -6
-19 -18z"/>
<path d="M2140 2715 c0 -12 52 -96 57 -91 6 5 -34 83 -47 91 -5 3 -10 3 -10 0z"/>
<path d="M1347 2615 c-11 -25 -17 -50 -15 -57 3 -7 13 8 22 34 24 61 17 81 -7
23z"/>
<path d="M2004 2613 c8 -21 17 -47 20 -57 4 -10 9 -16 12 -13 8 8 -26 107 -37
107 -5 0 -3 -17 5 -37z"/>
<path d="M1846 2570 c3 -30 9 -59 14 -64 10 -10 2 53 -12 94 -5 16 -6 6 -2
-30z"/>
<path d="M1510 2593 c0 -10 -3 -36 -6 -58 -7 -54 11 -25 21 33 4 28 3 42 -4
42 -6 0 -11 -8 -11 -17z"/>
<path d="M1683 2540 c0 -36 2 -50 4 -32 2 17 2 47 0 65 -2 17 -4 3 -4 -33z"/>
<path d="M2785 1825 c-97 -102 -180 -185 -184 -185 -3 0 0 74 8 165 12 133 12
167 1 180 -17 20 -251 22 -269 2 -19 -23 -61 -746 -61 -1049 l0 -158 140 0
c129 0 140 1 150 20 7 13 10 93 8 225 -2 113 0 205 4 205 13 0 130 -156 224
-300 53 -83 104 -150 111 -150 19 0 223 178 223 193 -1 17 -286 412 -297 410
-5 -1 -9 8 -9 19 0 12 68 99 168 214 92 107 168 201 168 210 0 24 -162 184
-186 184 -14 0 -81 -62 -199 -185z m225 -45 c0 -5 -4 -10 -10 -10 -5 0 -10 5
-10 10 0 6 5 10 10 10 6 0 10 -4 10 -10z m30 -70 c0 -5 -4 -10 -10 -10 -5 0
-10 5 -10 10 0 6 5 10 10 10 6 0 10 -4 10 -10z m-532 -422 c-7 -19 -38 -22
-38 -4 0 10 9 16 21 16 12 0 19 -5 17 -12z m402 -96 c0 -13 -12 -22 -22 -16
-10 6 -1 24 13 24 5 0 9 -4 9 -8z m10 -126 c0 -3 -4 -8 -10 -11 -5 -3 -10 -1
-10 4 0 6 5 11 10 11 6 0 10 -2 10 -4z"/>
<path d="M642 1976 c-29 -7 -55 -16 -58 -18 -8 -8 -162 -382 -209 -508 -39
-105 -99 -294 -169 -536 -15 -50 -24 -98 -21 -106 7 -19 47 -24 202 -27 l112
-2 16 53 c8 29 18 70 22 91 3 20 9 40 14 42 7 5 244 55 260 55 7 0 12 -30 24
-172 l7 -68 159 0 c139 0 160 2 166 16 3 9 -6 80 -20 158 -15 77 -45 245 -67
371 -47 267 -103 512 -130 564 -10 20 -32 50 -50 66 -29 28 -37 30 -118 32
-48 1 -111 -4 -140 -11z m238 -156 c0 -5 -4 -10 -10 -10 -5 0 -10 5 -10 10 0
6 5 10 10 10 6 0 10 -4 10 -10z m-370 -174 c0 -3 -4 -8 -10 -11 -5 -3 -10 -1
-10 4 0 6 5 11 10 11 6 0 10 -2 10 -4z m201 -69 c-13 -13 -26 -3 -16 12 3 6
11 8 17 5 6 -4 6 -10 -1 -17z m42 -124 c9 -54 18 -114 19 -133 l3 -35 -69 -3
c-55 -2 -67 0 -63 11 3 7 22 68 43 135 20 67 40 122 44 122 4 0 14 -44 23 -97z
m-92 16 c-10 -24 -25 -62 -31 -83 -19 -61 -60 -146 -71 -146 -12 0 -12 27 1
35 6 3 10 16 10 27 0 12 6 29 14 37 7 9 21 39 30 66 18 54 54 120 62 112 3 -3
-4 -24 -15 -48z m219 -93 c0 -11 -19 -15 -25 -6 -3 5 1 10 9 10 9 0 16 -2 16
-4z m70 -10 c0 -11 -19 -15 -25 -6 -3 5 1 10 9 10 9 0 16 -2 16 -4z m-67 -44
c-3 -12 -12 -22 -19 -22 -12 0 -11 5 2 25 19 30 26 28 17 -3z m73 -8 c2 -19
-2 -24 -13 -20 -8 3 -17 6 -19 6 -2 0 -4 9 -4 20 0 31 35 26 36 -6z m-38 -82
c6 -18 -15 -14 -22 4 -4 10 -1 14 6 12 6 -2 14 -10 16 -16z m-38 -72 c0 -5 -4
-10 -10 -10 -5 0 -10 5 -10 10 0 6 5 10 10 10 6 0 10 -4 10 -10z m90 -60 c0
-5 -4 -10 -10 -10 -5 0 -10 5 -10 10 0 6 5 10 10 10 6 0 10 -4 10 -10z m-450
-25 c11 -13 8 -15 -14 -15 -25 0 -33 10 -19 23 10 11 19 8 33 -8z m495 -5 c3
-5 1 -10 -4 -10 -6 0 -11 -5 -11 -11 0 -6 6 -9 14 -6 13 5 18 -13 43 -170 3
-19 1 -33 -5 -33 -10 0 -42 60 -42 78 0 6 -12 17 -27 24 -29 14 -40 46 -27 76
4 9 6 21 5 26 -7 30 38 51 54 26z m-589 -99 c-4 -6 -14 -11 -22 -11 -12 0 -12
3 -2 20 7 11 16 16 21 11 5 -5 6 -14 3 -20z m494 -137 c0 -8 -5 -12 -10 -9 -6
4 -8 11 -5 16 9 14 15 11 15 -7z"/>
<path d="M1355 1983 c-98 -7 -92 1 -99 -125 -3 -62 -13 -259 -21 -438 -9 -179
-19 -388 -23 -466 -4 -77 -5 -149 -3 -159 3 -17 13 -18 154 -12 83 4 151 8
152 10 5 5 14 189 15 282 0 56 4 95 9 90 4 -6 25 -63 45 -127 41 -132 62 -158
127 -158 59 0 92 36 164 179 l64 126 0 -50 c1 -27 -4 -112 -9 -189 -8 -102 -7
-142 1 -152 9 -11 47 -14 159 -14 131 0 149 2 152 17 2 9 1 258 -2 553 l-5
537 -29 37 c-16 21 -44 44 -62 52 -46 19 -151 18 -171 -1 -21 -21 -7 -33 19
-16 15 9 23 10 28 1 5 -7 24 -9 58 -4 36 4 52 3 52 -5 0 -6 -18 -11 -42 -11
-24 0 -66 -3 -94 -6 l-51 -6 -27 -67 c-96 -235 -180 -421 -186 -414 -4 4 -36
108 -70 229 -35 122 -70 230 -77 239 -11 15 -33 18 -159 21 -136 4 -164 7
-153 18 8 8 165 10 217 2 32 -5 52 -4 52 2 0 18 -101 32 -185 25z m705 -283
c0 -5 -5 -10 -11 -10 -5 0 -7 5 -4 10 3 6 8 10 11 10 2 0 4 -4 4 -10z m-310
-310 c0 -5 -4 -10 -10 -10 -5 0 -10 5 -10 10 0 6 5 10 10 10 6 0 10 -4 10 -10z
m105 -70 c-3 -5 -10 -10 -16 -10 -5 0 -9 5 -9 10 0 6 7 10 16 10 8 0 12 -4 9
-10z m-85 -20 c0 -5 -4 -10 -9 -10 -6 0 -13 5 -16 10 -3 6 1 10 9 10 9 0 16
-4 16 -10z m-500 -81 c0 -11 -4 -18 -10 -14 -5 3 -7 12 -3 20 7 21 13 19 13
-6z m540 -9 c0 -5 -4 -10 -10 -10 -5 0 -10 5 -10 10 0 6 5 10 10 10 6 0 10 -4
10 -10z m-545 -217 c-1 -112 -5 -187 -11 -185 -5 2 -8 24 -6 50 1 26 -2 87 -8
137 -6 58 -6 93 0 99 6 6 10 24 10 41 0 26 6 45 15 45 1 0 1 -84 0 -187z m525
177 c0 -5 -4 -10 -10 -10 -5 0 -10 5 -10 10 0 6 5 10 10 10 6 0 10 -4 10 -10z
m48 -23 c-7 -14 -13 -17 -16 -9 -6 19 6 44 18 37 7 -4 6 -14 -2 -28z m222
-107 c0 -5 -4 -10 -10 -10 -5 0 -10 5 -10 10 0 6 5 10 10 10 6 0 10 -4 10 -10z
m-315 -60 c8 -13 -5 -13 -25 0 -13 8 -13 10 2 10 9 0 20 -4 23 -10z m-235 -20
c0 -5 -2 -10 -4 -10 -3 0 -8 5 -11 10 -3 6 -1 10 4 10 6 0 11 -4 11 -10z"/>
<path d="M575 273 c-46 -6 -55 -27 -55 -123 0 -105 12 -123 81 -118 35 2 46 8
56 28 15 30 -3 43 -23 16 -8 -12 -23 -16 -46 -14 l-33 3 -3 84 c-3 89 2 101
45 101 12 0 29 -9 37 -21 20 -29 39 -16 24 16 -6 14 -15 25 -19 25 -4 0 -13 2
-21 3 -7 2 -26 2 -43 0z"/>
<path d="M769 266 c-22 -11 -24 -18 -27 -108 -2 -77 0 -99 13 -112 19 -19 95
-22 113 -4 17 17 16 202 0 216 -21 16 -74 21 -99 8z m79 -112 l3 -92 -29 -4
c-16 -2 -34 -2 -40 0 -13 4 -17 173 -5 186 4 4 21 6 38 4 l30 -3 3 -91z"/>
<path d="M965 153 l0 -123 63 0 c55 0 62 2 62 20 0 18 -5 19 -46 13 l-46 -6 3
109 c4 105 3 110 -16 110 -19 0 -20 -6 -20 -123z"/>
<path d="M1180 276 c-1 0 -2 -56 -3 -124 l-2 -122 67 0 c61 0 66 2 61 20 -4
15 -11 18 -37 13 -17 -3 -35 -6 -41 -7 -14 -1 -19 174 -5 188 16 16 12 23 -15
28 -14 3 -25 5 -25 4z"/>
<path d="M1384 268 c-3 -4 -1 -16 4 -25 11 -20 9 -169 -1 -180 -4 -3 -7 -12
-7 -20 0 -10 18 -13 71 -13 62 0 70 2 67 18 -3 14 -12 16 -51 14 l-48 -4 3 39
c3 35 6 38 36 43 18 3 32 10 31 15 0 6 -6 9 -12 7 -6 -2 -21 -1 -34 3 -21 5
-24 11 -21 43 2 30 7 38 26 40 13 2 29 -2 37 -8 16 -14 35 -5 35 16 0 8 -11
15 -27 15 -80 5 -105 4 -109 -3z"/>
<path d="M1629 272 c-30 -9 -39 -36 -39 -117 0 -102 13 -125 74 -125 23 0 47
5 54 12 7 7 12 38 12 70 l0 57 -35 -1 c-37 -1 -51 -28 -15 -28 25 0 34 -21 26
-56 -6 -22 -11 -25 -44 -22 l-37 3 -3 84 c-3 89 2 101 44 101 12 0 28 -10 37
-22 11 -17 18 -20 26 -12 29 28 -49 71 -100 56z"/>
<path d="M1820 275 c-1 0 -2 -55 -3 -123 l-2 -122 63 0 c54 0 62 2 62 19 0 16
-6 18 -46 13 l-45 -5 3 39 c3 37 5 39 41 42 48 4 45 27 -4 27 -33 0 -34 1 -34
40 0 34 3 40 24 43 13 2 28 -1 34 -7 18 -18 27 -13 27 15 0 25 -2 25 -60 22
-33 -1 -60 -3 -60 -3z"/>
<path d="M2168 258 c-10 -10 -18 -25 -18 -33 0 -22 27 -18 33 5 4 14 14 20 34
20 35 0 53 -16 53 -46 0 -28 -15 -38 -59 -41 -46 -3 -54 -13 -59 -78 l-4 -55
75 0 c68 0 75 2 70 18 -4 16 -12 18 -59 14 l-54 -4 0 35 c0 38 12 47 60 47 15
0 33 7 40 16 19 22 16 82 -3 102 -24 23 -86 23 -109 0z"/>
<path d="M2400 267 c-24 -12 -25 -18 -28 -109 -2 -77 0 -99 13 -112 19 -19 95
-22 113 -4 18 18 16 202 -1 217 -23 18 -70 22 -97 8z m78 -111 c3 -97 -2 -108
-47 -97 -25 7 -26 11 -29 86 -4 99 0 107 40 103 l33 -3 3 -89z"/>
<path d="M2605 266 c-16 -12 -17 -16 -6 -30 10 -12 12 -41 9 -111 -4 -91 -3
-95 17 -95 19 0 20 5 17 117 -2 65 -7 121 -11 126 -4 4 -16 1 -26 -7z"/>
<path d="M2760 267 c-24 -12 -25 -17 -28 -111 -2 -64 1 -103 9 -112 16 -19 93
-18 113 2 23 22 21 96 -2 117 -10 10 -35 17 -56 17 -41 0 -54 17 -36 49 11 22
63 30 75 11 9 -15 25 -12 25 4 0 29 -61 43 -100 23z m78 -155 c4 -43 -10 -60
-47 -54 -37 5 -43 19 -32 85 0 5 18 7 39 5 34 -3 37 -6 40 -36z"/>
</g>
</svg>
