<svg width="35" height="35" viewBox="0 0 35 35" fill="none" xmlns="http://www.w3.org/2000/svg">
<path d="M17.4985 10.7581C15.7101 10.7581 13.9949 11.4685 12.7303 12.7331C11.4657 13.9978 10.7552 15.7129 10.7552 17.5014C10.7552 19.2898 11.4657 21.005 12.7303 22.2696C13.9949 23.5343 15.7101 24.2447 17.4985 24.2447C19.287 24.2447 21.0022 23.5343 22.2668 22.2696C23.5314 21.005 24.2419 19.2898 24.2419 17.5014C24.2419 15.7129 23.5314 13.9978 22.2668 12.7331C21.0022 11.4685 19.287 10.7581 17.4985 10.7581ZM17.4985 21.8808C16.3367 21.8808 15.2224 21.4192 14.4008 20.5976C13.5793 19.7761 13.1177 18.6618 13.1177 17.4999C13.1177 16.3381 13.5793 15.2238 14.4008 14.4022C15.2224 13.5806 16.3367 13.1191 17.4985 13.1191C18.6604 13.1191 19.7747 13.5806 20.5963 14.4022C21.4178 15.2238 21.8794 16.3381 21.8794 17.4999C21.8794 18.6618 21.4178 19.7761 20.5963 20.5976C19.7747 21.4192 18.6604 21.8808 17.4985 21.8808Z" fill="#EEF6FE"/>
<path d="M24.5088 12.0822C25.377 12.0822 26.0808 11.3783 26.0808 10.5101C26.0808 9.64183 25.377 8.93799 24.5088 8.93799C23.6405 8.93799 22.9367 9.64183 22.9367 10.5101C22.9367 11.3783 23.6405 12.0822 24.5088 12.0822Z" fill="#EEF6FE"/>
<path d="M29.944 8.91166C29.6064 8.03984 29.0905 7.24812 28.4292 6.58717C27.768 5.92621 26.9761 5.4106 26.1042 5.07333C25.0838 4.69031 24.0059 4.4832 22.9163 4.46083C21.5119 4.39958 21.0671 4.38208 17.5058 4.38208C13.9446 4.38208 13.4881 4.38208 12.0954 4.46083C11.0066 4.48206 9.92945 4.68921 8.91043 5.07333C8.03825 5.41021 7.24613 5.92568 6.58488 6.58668C5.92362 7.24769 5.40785 8.03961 5.07064 8.91166C4.68754 9.93193 4.48091 11.01 4.4596 12.0996C4.39689 13.5025 4.37793 13.9473 4.37793 17.51C4.37793 21.0712 4.37793 21.5248 4.4596 22.9204C4.48147 24.0112 4.6871 25.0875 5.07064 26.1098C5.40879 26.9815 5.92507 27.7731 6.58648 28.434C7.24789 29.095 8.0399 29.6106 8.91189 29.9481C9.92898 30.3465 11.0066 30.5685 12.0983 30.6044C13.5027 30.6656 13.9475 30.6846 17.5088 30.6846C21.07 30.6846 21.5265 30.6846 22.9192 30.6044C24.0087 30.5822 25.0866 30.3756 26.1071 29.9933C26.9788 29.6553 27.7705 29.1392 28.4316 28.4781C29.0928 27.8169 29.6088 27.0253 29.9469 26.1535C30.3304 25.1327 30.5361 24.0565 30.5579 22.9656C30.6206 21.5627 30.6396 21.1179 30.6396 17.5552C30.6396 13.9925 30.6396 13.5404 30.5579 12.1448C30.541 11.0398 30.3332 9.94598 29.944 8.91166ZM28.1677 22.8125C28.1583 23.6529 28.0049 24.4856 27.7142 25.2742C27.4952 25.8413 27.1599 26.3562 26.7299 26.786C26.2999 27.2157 25.7847 27.5507 25.2175 27.7694C24.4376 28.0588 23.6139 28.2122 22.7821 28.2229C21.3967 28.2871 21.0058 28.3031 17.4533 28.3031C13.8979 28.3031 13.5348 28.3031 12.1231 28.2229C11.2918 28.2127 10.4684 28.0593 9.68918 27.7694C9.11997 27.5521 8.60272 27.2177 8.17089 26.7879C7.73906 26.358 7.40227 25.8424 7.1823 25.2742C6.89566 24.494 6.74234 23.6712 6.72876 22.8402C6.66605 21.4548 6.65147 21.064 6.65147 17.5115C6.65147 13.9575 6.65147 13.5944 6.72876 12.1812C6.73819 11.3413 6.89159 10.5092 7.1823 9.72104C7.6271 8.57041 8.53855 7.66479 9.68918 7.22437C10.4688 6.93583 11.2919 6.78244 12.1231 6.77083C13.51 6.70812 13.8994 6.69062 17.4533 6.69062C21.0073 6.69062 21.3719 6.69062 22.7821 6.77083C23.6139 6.78084 24.4378 6.93427 25.2175 7.22437C25.7847 7.44352 26.2998 7.77883 26.7298 8.20879C27.1597 8.63875 27.495 9.15385 27.7142 9.72104C28.0008 10.5012 28.1541 11.324 28.1677 12.155C28.2304 13.5419 28.2465 13.9312 28.2465 17.4852C28.2465 21.0377 28.2465 21.4198 28.1838 22.814H28.1677V22.8125Z" fill="#EEF6FE"/>
</svg>
