<svg width="35" height="35" viewBox="0 0 35 35" fill="none" xmlns="http://www.w3.org/2000/svg">
<path d="M31.4694 9.99695C31.6735 9.31883 31.4694 8.82153 30.5039 8.82153H27.3058C26.4921 8.82153 26.1202 9.25174 25.916 9.72424C25.916 9.72424 24.29 13.6894 21.9858 16.2605C21.2421 17.0086 20.9023 17.2449 20.4969 17.2449C20.2942 17.2449 19.9996 17.0086 19.9996 16.3305V9.99695C19.9996 9.1832 19.7648 8.82153 19.0867 8.82153H14.0612C13.5537 8.82153 13.2475 9.19778 13.2475 9.55653C13.2475 10.3265 14.3996 10.5044 14.5177 12.6744V17.3819C14.5177 18.413 14.3325 18.6011 13.9242 18.6011C12.8406 18.6011 10.2039 14.6213 8.63916 10.0655C8.33436 9.18028 8.02666 8.82299 7.20999 8.82299H4.01332C3.09895 8.82299 2.91666 9.2532 2.91666 9.7257C2.91666 10.5745 4.0002 14.7744 7.96395 20.3292C10.6064 24.1224 14.3267 26.1786 17.7158 26.1786C19.7473 26.1786 19.9981 25.7222 19.9981 24.9347V22.0676C19.9981 21.1547 20.1921 20.9709 20.8352 20.9709C21.3077 20.9709 22.1214 21.2101 24.0187 23.0374C26.1858 25.2044 26.5446 26.1772 27.7623 26.1772H30.9589C31.8719 26.1772 32.3283 25.7207 32.0658 24.8194C31.7785 23.9226 30.7431 22.6174 29.3694 21.073C28.6227 20.1922 27.5071 19.2442 27.1673 18.7703C26.6933 18.1592 26.8304 17.8895 27.1673 17.347C27.1687 17.3484 31.0639 11.8622 31.4694 9.99695Z" fill="#EEF6FE"/>
</svg>
